<svg version="1.1" id="Layer_1" xmlns="http://www.w3.org/2000/svg" xmlns:xlink="http://www.w3.org/1999/xlink" x="0px" y="0px"
	 width="100%" viewBox="0 0 2508 408" enable-background="new 0 0 2508 408" xml:space="preserve">
<path fill="none" opacity="1.000000" stroke="#000000" stroke-linecap="round" stroke-linejoin="round" stroke-width="10.000000"
	d="
M1838.000000,127.250000 
	C1832.969849,131.100861 1826.613037,133.417526 1823.956543,139.982422 
	C1822.445435,143.716904 1822.126465,147.700638 1820.993774,151.498138 
	C1819.351074,157.005280 1818.003296,162.631210 1815.922607,167.969818 
	C1812.659424,176.342407 1816.686768,185.847900 1826.035522,188.368118 
	C1831.877441,189.942917 1837.689453,188.085526 1842.456543,184.443161 
	C1852.631104,176.669388 1859.149170,166.278732 1862.463623,153.990189 
	C1868.028687,133.358643 1857.230591,109.832642 1837.489502,99.520126 
	C1812.918457,86.684532 1778.996094,90.554878 1757.916260,107.898232 
	C1747.177490,116.733429 1738.495361,126.702560 1733.998657,139.999557 
	C1726.376465,162.538635 1732.170776,188.559006 1751.406250,203.619797 
	C1761.923950,211.854935 1773.358154,216.720764 1786.489014,218.577667 
	C1805.960815,221.331314 1823.968994,217.104492 1840.925659,207.863571 
	C1844.251587,206.051056 1847.090454,205.461929 1850.500000,206.500000 
"/>
<path fill="none" opacity="1.000000" stroke="#000000" stroke-linecap="round" stroke-linejoin="round" stroke-width="8.000000"
	d="
M2217.500000,189.000000 
	C2218.855469,196.750946 2221.149414,204.303024 2226.088623,210.428513 
	C2235.828125,222.507248 2248.872314,223.181946 2259.068359,209.049225 
	C2263.793213,202.499863 2264.951416,194.779282 2267.500000,187.500000 
"/>
<path fill="none" opacity="1.000000" stroke="#000000" stroke-linecap="round" stroke-linejoin="round" stroke-width="8.000000"
	d="
M2267.750000,124.000000 
	C2265.597412,116.678062 2264.258301,109.077415 2260.014160,102.490913 
	C2255.629395,95.686447 2249.920410,90.347496 2241.506592,90.673050 
	C2232.397217,91.025536 2227.163574,97.447731 2222.926270,104.958435 
	C2219.627686,110.805695 2218.680664,117.338295 2216.500000,123.500000 
"/>
<path fill="none" opacity="1.000000" stroke="#000000" stroke-linecap="round" stroke-linejoin="round" stroke-width="9.000000"
	d="
M1392.000000,130.000015 
	C1390.166626,123.166679 1388.460083,116.294594 1386.393311,109.532631 
	C1385.978027,108.173668 1386.113281,106.221718 1384.015137,105.458313 
	C1374.317749,101.929703 1366.440552,94.682426 1356.021362,92.402611 
	C1337.570923,88.365540 1322.036621,92.604271 1309.480835,106.983223 
	C1306.627075,110.251289 1304.020752,113.657707 1302.000000,117.500000 
"/>
<path fill="none" opacity="1.000000" stroke="#000000" stroke-linecap="round" stroke-linejoin="round" stroke-width="9.000000"
	d="
M1304.500000,197.000000 
	C1312.284424,207.377670 1321.964111,214.735092 1334.983643,217.574875 
	C1351.390991,221.153549 1366.030396,217.287094 1379.447876,207.925369 
	C1383.287964,205.246078 1386.609985,201.777527 1389.957153,198.456879 
	C1391.847046,196.581955 1393.842407,195.436249 1396.500000,195.500000 
"/>
<path fill="none" opacity="1.000000" stroke="#000000" stroke-linecap="round" stroke-linejoin="round" stroke-width="8.000000"
	d="
M503.500000,176.000000 
	C503.498535,187.818573 504.920715,199.246979 512.499146,209.000671 
	C524.900513,224.961685 544.928894,222.264496 554.029114,205.515839 
	C556.120056,201.667603 557.697266,197.651642 559.000000,193.500000 
"/>
<path fill="none" opacity="1.000000" stroke="#000000" stroke-linecap="round" stroke-linejoin="round" stroke-width="8.000000"
	d="
M558.750000,158.000000 
	C556.453979,148.485245 552.003174,140.368134 543.489929,135.016037 
	C536.001221,130.308014 525.651733,131.431580 518.457520,136.944550 
	C508.970520,144.214539 505.431152,154.277344 504.013275,165.501678 
	C503.593597,168.824097 503.333344,172.166672 503.000000,175.500000 
"/>
<path fill="none" opacity="1.000000" stroke="#000000" stroke-linecap="round" stroke-linejoin="round" stroke-width="8.000000"
	d="
M309.000000,218.000000 
	C308.333344,219.833328 307.353516,221.618622 307.063385,223.509720 
	C306.403015,227.813690 304.187897,230.596680 300.573578,233.105957 
	C292.087006,238.997864 293.929657,245.694016 300.508698,249.986664 
	C306.265869,253.743073 312.622284,255.532791 319.495758,256.055664 
	C331.513672,256.969849 343.408356,256.956055 354.470734,251.441269 
	C362.812164,247.282913 366.274658,242.603729 364.864777,232.018005 
	C364.194366,226.984421 361.510101,222.806976 356.029327,220.915024 
	C351.591675,219.383133 347.201508,218.508270 342.500824,218.442032 
	C331.998199,218.294052 321.469391,218.215561 311.009796,217.377686 
	C302.809326,216.720795 299.437622,210.431686 302.505402,203.002228 
	C304.049042,199.263763 305.725037,195.730835 309.451569,193.421829 
	C312.131073,191.761551 313.596039,188.814865 315.000000,186.000000 
"/>
<path fill="none" opacity="1.000000" stroke="#000000" stroke-linecap="round" stroke-linejoin="round" stroke-width="8.000000"
	d="
M1486.000000,202.000000 
	C1490.272461,204.625580 1491.452393,209.726700 1494.950195,213.052368 
	C1501.779663,219.545532 1511.742798,221.589539 1521.029419,216.554337 
	C1530.086792,211.643478 1535.230835,203.873032 1538.500000,194.500000 
"/>
<path fill="none" opacity="1.000000" stroke="#000000" stroke-linecap="round" stroke-linejoin="round" stroke-width="8.000000"
	d="
M1536.500000,150.500000 
	C1532.759521,142.154953 1526.460327,136.837631 1517.489380,135.053528 
	C1512.033081,133.968399 1506.015259,134.785873 1502.217896,138.239594 
	C1496.689575,143.267624 1490.505249,143.515793 1484.000000,144.000000 
"/>
<path fill="none" opacity="1.000000" stroke="#000000" stroke-linecap="round" stroke-linejoin="round" stroke-width="8.000000"
	d="
M406.000000,143.000000 
	C409.666840,142.837082 413.406677,143.549072 416.979919,142.435577 
	C418.319061,142.018280 419.830292,142.217926 421.026306,141.026413 
	C432.484802,129.611099 451.990021,135.217361 458.014832,148.993515 
	C458.401031,149.876617 459.000000,150.666672 459.500000,151.500000 
"/>
<path fill="none" opacity="1.000000" stroke="#000000" stroke-linecap="round" stroke-linejoin="round" stroke-width="8.000000"
	d="
M460.500000,195.000000 
	C456.762238,207.595566 448.832031,216.496964 435.951416,219.274689 
	C427.489868,221.099442 420.125580,217.277435 415.016327,209.988556 
	C413.847687,208.321304 412.682678,206.689468 411.000000,205.500000 
"/>
<path fill="none" opacity="1.000000" stroke="#000000" stroke-linecap="round" stroke-linejoin="round" stroke-width="8.000000"
	d="
M1821.000000,140.000000 
	C1818.077637,138.687180 1815.697388,136.867706 1813.958862,134.025177 
	C1808.012451,124.303520 1797.398682,125.627975 1790.103760,130.650650 
	C1777.879761,139.067154 1771.549316,151.670578 1769.116821,166.019806 
	C1767.561157,175.195709 1773.474609,184.797470 1781.500000,187.999969 
	C1786.972534,190.183762 1794.012817,188.112656 1799.015259,183.014999 
	C1802.812866,179.145218 1806.204346,174.656693 1812.003296,173.517029 
	C1812.645142,173.390869 1813.333374,173.500000 1814.000000,173.500000 
"/>
<path fill="none" opacity="1.000000" stroke="#000000" stroke-linecap="round" stroke-linejoin="round" stroke-width="8.000000"
	d="
M143.000000,200.500000 
	C133.087723,213.359650 119.660355,218.011780 104.012863,216.376907 
	C96.367012,215.578033 89.901268,211.540512 84.500000,206.000000 
"/>
<path fill="none" opacity="1.000000" stroke="#000000" stroke-linecap="round" stroke-linejoin="round" stroke-width="8.000000"
	d="
M764.000000,144.000000 
	C754.921875,134.202209 742.614502,134.088013 734.224915,141.746414 
	C728.207031,147.239868 721.966797,149.013718 714.500000,149.000000 
"/>
<path fill="none" opacity="1.000000" stroke="#000000" stroke-linecap="round" stroke-linejoin="round" stroke-width="8.000000"
	d="
M1961.000000,143.500000 
	C1951.307129,133.934418 1938.579834,134.029510 1929.045898,144.043732 
	C1924.385498,148.939087 1918.409424,148.894791 1912.500000,149.500000 
"/>
<path fill="none" opacity="1.000000" stroke="#000000" stroke-linecap="round" stroke-linejoin="round" stroke-width="8.000000"
	d="
M608.500000,206.500000 
	C618.207092,217.875183 628.252014,217.486237 638.796936,211.161407 
	C645.016479,207.430923 650.813721,206.244095 657.500000,206.500000 
"/>
<path fill="none" opacity="1.000000" stroke="#000000" stroke-linecap="round" stroke-linejoin="round" stroke-width="8.000000"
	d="
M203.500000,207.000000 
	C211.256485,216.941620 222.876770,218.176926 234.404861,210.359711 
	C239.874359,206.650818 245.775070,207.585739 251.500000,206.500000 
"/>
<path fill="none" opacity="1.000000" stroke="#000000" stroke-linecap="round" stroke-linejoin="round" stroke-width="7.000000"
	d="
M2380.000000,217.000000 
	C2372.524170,214.983643 2366.291016,210.411041 2359.539551,206.923477 
	C2356.966309,205.594284 2356.351807,202.433136 2354.982422,200.009903 
	C2353.731689,197.796677 2352.333252,195.666656 2351.000000,193.499985 
"/>
<path fill="none" opacity="1.000000" stroke="#000000" stroke-linecap="round" stroke-linejoin="round" stroke-width="7.000000"
	d="
M2317.500000,143.500000 
	C2310.655273,140.357758 2304.325439,136.099884 2296.993408,134.023132 
	C2296.376221,133.848251 2295.666748,134.000000 2295.000000,134.000000 
"/>
<path fill="none" opacity="1.000000" stroke="#000000" stroke-linecap="round" stroke-linejoin="round" stroke-width="7.000000"
	d="
M52.500000,92.500000 
	C62.822041,92.600464 71.679550,96.466866 79.500000,103.000000 
"/>
<path fill="none" opacity="1.000000" stroke="#000000" stroke-linecap="round" stroke-linejoin="round" stroke-width="7.000000"
	d="
M78.500000,207.500000 
	C71.073906,213.549255 62.953354,217.734436 53.000000,217.000000 
"/>
<path fill="none" opacity="1.000000" stroke="#000000" stroke-linecap="round" stroke-linejoin="round" stroke-width="7.000000"
	d="
M1007.500000,92.500000 
	C1017.211914,93.056793 1025.861816,96.192749 1033.000000,103.000000 
"/>
<path fill="none" opacity="1.000000" stroke="#000000" stroke-linecap="round" stroke-linejoin="round" stroke-width="7.000000"
	d="
M1032.000000,207.500000 
	C1025.278564,213.896637 1017.323181,217.176071 1008.000000,217.000000 
"/>
<path fill="none" opacity="1.000000" stroke="#000000" stroke-linecap="round" stroke-linejoin="round" stroke-width="7.000000"
	d="
M864.000000,134.000000 
	C869.669373,134.301605 874.097839,137.337036 878.519836,140.472061 
	C880.401245,141.805923 882.500000,142.833328 884.500000,143.999985 
"/>
<path fill="none" opacity="1.000000" stroke="#000000" stroke-linecap="round" stroke-linejoin="round" stroke-width="8.000000"
	d="
M906.500000,198.000000 
	C906.666687,203.166672 906.810425,208.334183 907.004456,213.499832 
	C907.515808,227.112564 901.789978,238.394058 894.050354,249.036636 
	C890.782471,253.530151 886.645813,253.359024 881.994324,252.531799 
	C876.988281,251.641525 873.589722,249.154617 872.267944,244.192795 
	C874.004272,241.065536 876.661499,240.821213 879.500000,241.000000 
"/>
<path fill="none" opacity="1.000000" stroke="#000000" stroke-linecap="round" stroke-linejoin="round" stroke-width="7.000000"
	d="
M1568.000000,134.000000 
	C1574.138428,133.849350 1578.420288,138.138367 1583.476807,140.548630 
	C1585.288086,141.412018 1586.833252,142.833374 1588.500000,144.000046 
"/>
<path fill="none" opacity="1.000000" stroke="#000000" stroke-linecap="round" stroke-linejoin="round" stroke-width="8.000000"
	d="
M1610.500000,198.000000 
	C1612.922241,216.614929 1610.523438,234.060684 1597.989624,248.991302 
	C1593.135864,254.773254 1583.909302,254.445160 1578.966919,248.527679 
	C1577.696411,247.006561 1576.345947,245.170029 1577.123291,243.559509 
	C1578.761841,240.165024 1577.754395,236.852417 1577.750000,233.500000 
"/>
<path fill="none" opacity="1.000000" stroke="#000000" stroke-linecap="round" stroke-linejoin="round" stroke-width="8.000000"
	d="
M348.500000,143.500000 
	C346.500000,141.666672 344.599335,139.708878 342.483704,138.020416 
	C329.911285,127.986473 313.668030,131.948898 305.860016,144.915710 
	C296.187073,160.979691 303.465393,177.435028 315.247406,185.120728 
	C322.246307,189.686295 331.625763,189.181351 339.498535,183.997757 
	C351.715424,175.953903 354.563049,167.373367 350.927948,153.018250 
	C350.166290,150.010498 348.775024,147.155090 348.500000,144.000000 
"/>
<path fill="none" opacity="1.000000" stroke="#000000" stroke-linecap="round" stroke-linejoin="round" stroke-width="9.000000"
	d="
M830.250000,102.500000 
	C827.594055,111.318726 824.837097,120.101509 821.000000,128.500000 
"/>
<path fill="none" opacity="1.000000" stroke="#000000" stroke-linecap="round" stroke-linejoin="round" stroke-width="7.000000"
	d="
M823.500000,209.000000 
	C832.511047,216.182327 843.812195,215.858826 850.101746,207.072830 
	C851.549683,205.050140 852.341125,202.007797 855.500000,201.500000 
"/>
<path fill="none" opacity="1.000000" stroke="#000000" stroke-linecap="round" stroke-linejoin="round" stroke-width="6.000000"
	d="
M403.750000,201.000000 
	C400.250000,207.666656 396.750000,214.333328 393.250000,221.000000 
"/>
<path fill="none" opacity="1.000000" stroke="#000000" stroke-linecap="round" stroke-linejoin="round" stroke-width="8.000000"
	d="
M1481.500000,200.500000 
	C1477.833374,207.500000 1474.166626,214.500000 1470.500000,221.500000 
"/>
<path fill="none" opacity="1.000000" stroke="#000000" stroke-linecap="round" stroke-linejoin="round" stroke-width="8.000000"
	d="
M1043.500000,100.000000 
	C1050.366577,92.932770 1059.230591,93.169403 1067.997803,93.549332 
	C1078.789185,94.016975 1087.248657,99.394691 1094.500000,107.000000 
"/>
<path fill="none" opacity="1.000000" stroke="#000000" stroke-linecap="round" stroke-linejoin="round" stroke-width="9.000000"
	d="
M1094.500000,143.500000 
	C1085.335327,154.372681 1073.208984,157.826691 1059.502441,158.116425 
	C1052.336914,158.267883 1045.168457,158.410797 1038.000000,158.500000 
"/>
<path fill="none" opacity="1.000000" stroke="#000000" stroke-linecap="round" stroke-linejoin="round" stroke-width="8.000000"
	d="
M2112.000000,207.500000 
	C2106.454346,212.694138 2100.085693,216.283539 2092.500000,217.500000 
"/>
<path fill="none" opacity="1.000000" stroke="#000000" stroke-linecap="round" stroke-linejoin="round" stroke-width="8.000000"
	d="
M2039.500000,219.500000 
	C2039.500000,211.500000 2039.500000,203.500000 2039.500000,195.500000 
"/>
<path fill="none" opacity="1.000000" stroke="#000000" stroke-linecap="round" stroke-linejoin="round" stroke-width="7.000000"
	d="
M2017.500000,143.500000 
	C2012.013794,140.474747 2007.020264,136.529053 2000.988159,134.535797 
	C1999.736450,134.122177 1998.333374,134.166656 1997.000000,134.000000 
"/>
<path fill="none" opacity="1.000000" stroke="#000000" stroke-linecap="round" stroke-linejoin="round" stroke-width="8.000000"
	d="
M83.000000,151.000000 
	C95.333336,151.000000 107.666664,151.003708 120.000000,150.996643 
	C122.251747,150.995346 123.787766,150.977936 125.219055,148.109299 
	C128.138214,142.258652 134.551407,139.197906 138.496124,133.997055 
	C138.858597,133.519165 139.166656,133.000000 139.499985,132.500000 
"/>
<path fill="none" opacity="1.000000" stroke="#000000" stroke-linecap="round" stroke-linejoin="round" stroke-width="7.000000"
	d="
M138.000000,107.000000 
	C128.295303,95.843567 116.244507,91.075371 101.497536,93.484932 
	C95.418205,94.478256 90.826721,97.978531 86.500000,102.000000 
"/>
<path fill="none" opacity="1.000000" stroke="#000000" stroke-linecap="round" stroke-linejoin="round" stroke-width="8.000000"
	d="
M1652.000000,134.000000 
	C1649.143066,133.905441 1646.577393,134.781937 1643.960327,135.907715 
	C1642.137939,136.691696 1640.766357,137.545242 1640.521484,139.502686 
	C1639.215088,149.944046 1634.312378,159.214081 1630.987427,168.995728 
	C1629.562378,173.187881 1627.742920,177.261597 1626.555786,181.515594 
	C1624.386963,189.287582 1619.176514,193.254898 1611.500000,194.500000 
"/>
<path fill="none" opacity="1.000000" stroke="#000000" stroke-linecap="round" stroke-linejoin="round" stroke-width="8.000000"
	d="
M948.000000,134.000000 
	C945.143005,133.905441 942.577332,134.781937 939.960327,135.907745 
	C938.137878,136.691696 936.856018,137.554352 936.506104,139.501099 
	C933.652527,155.376999 925.965820,169.647064 921.290833,184.936050 
	C919.415894,191.068039 913.177979,193.385696 907.000000,194.500000 
"/>
<path fill="none" opacity="1.000000" stroke="#000000" stroke-linecap="round" stroke-linejoin="round" stroke-width="8.000000"
	d="
M2070.500000,138.000000 
	C2070.268799,142.585159 2068.530029,146.795120 2066.945068,150.979218 
	C2062.943848,161.541916 2058.794434,172.053177 2054.452148,182.480011 
	C2051.841064,188.749695 2046.551392,191.455704 2040.000000,192.000000 
"/>
<path fill="none" opacity="1.000000" stroke="#000000" stroke-linecap="round" stroke-linejoin="round" stroke-width="7.000000"
	d="
M1891.000000,134.000000 
	C1899.134033,134.147018 1905.008179,138.700699 1910.500000,144.000000 
"/>
<path fill="none" opacity="1.000000" stroke="#000000" stroke-linecap="round" stroke-linejoin="round" stroke-width="25.000000"
	d="
M2182.500000,133.500000 
	C2176.412109,134.437332 2170.266357,134.993469 2164.456299,137.394394 
	C2163.112793,137.949585 2161.436279,138.268860 2161.080566,139.522812 
	C2159.041504,146.713196 2153.710449,151.479401 2148.385254,155.860626 
	C2142.943115,160.338287 2143.290527,166.207977 2142.485107,171.997940 
	C2142.272705,173.525406 2143.355225,174.503372 2144.054932,175.459778 
	C2151.266113,185.314865 2158.850586,194.902649 2165.052002,205.469482 
	C2165.360107,205.994598 2165.538330,206.664383 2166.460205,207.086807 
	C2173.845947,210.470642 2180.594482,215.199036 2188.500000,217.500000 
"/>
<path fill="none" opacity="1.000000" stroke="#000000" stroke-linecap="round" stroke-linejoin="round" stroke-width="8.000000"
	d="
M2331.000000,183.000000 
	C2323.254639,191.201035 2316.360840,200.027740 2310.962891,209.979904 
	C2310.381836,211.051392 2309.864014,212.022293 2310.000000,213.250000 
"/>
<path fill="none" opacity="1.000000" stroke="#000000" stroke-linecap="round" stroke-linejoin="round" stroke-width="8.000000"
	d="
M2379.000000,134.000031 
	C2376.166748,134.500031 2373.267334,134.770401 2370.517090,135.559738 
	C2367.291748,136.485443 2365.517334,138.643326 2363.777832,141.880646 
	C2358.816162,151.114426 2352.419189,159.460358 2344.000000,166.000000 
"/>
<path fill="none" opacity="1.000000" stroke="#000000" stroke-linecap="round" stroke-linejoin="round" stroke-width="7.000000"
	d="
M1039.500000,206.000000 
	C1047.225830,213.747360 1056.809570,216.971008 1067.500000,217.500000 
"/>
<path fill="none" opacity="1.000000" stroke="#000000" stroke-linecap="round" stroke-linejoin="round" stroke-width="10.000000"
	d="
M2142.000000,173.000000 
	C2136.675293,172.853287 2131.539551,173.099060 2126.432861,175.347260 
	C2122.819092,176.938126 2118.530029,176.528442 2114.500000,176.500000 
"/>
<path fill="none" opacity="1.000000" stroke="#000000" stroke-linecap="round" stroke-linejoin="round" stroke-width="10.000000"
	d="
M847.500000,135.500000 
	C838.666687,135.500000 829.833313,135.500000 821.000000,135.500000 
"/>
<path fill="none" opacity="1.000000" stroke="#000000" stroke-linecap="round" stroke-linejoin="round" stroke-width="8.000000"
	d="
M254.000000,205.500000 
	C258.915405,207.841293 262.850952,212.082794 268.500549,212.996597 
	C271.480988,213.478668 274.424225,214.697556 277.500000,213.500000 
"/>
<path fill="none" opacity="1.000000" stroke="#000000" stroke-linecap="round" stroke-linejoin="round" stroke-width="8.000000"
	d="
M660.000000,205.000000 
	C666.109863,210.506500 672.902039,214.287064 681.500000,213.500000 
"/>
<path fill="none" opacity="1.000000" stroke="#000000" stroke-linecap="round" stroke-linejoin="round" stroke-width="7.000000"
	d="
M657.500000,143.000000 
	C651.744385,137.545181 645.376038,133.486053 637.000000,134.000000 
"/>
<path fill="none" opacity="1.000000" stroke="#000000" stroke-linecap="round" stroke-linejoin="round" stroke-width="7.000000"
	d="
M1910.500000,207.000000 
	C1904.893311,212.518967 1898.461182,216.465836 1890.500000,217.500000 
"/>
<path fill="none" opacity="1.000000" stroke="#000000" stroke-linecap="round" stroke-linejoin="round" stroke-width="7.000000"
	d="
M2092.500000,92.500000 
	C2100.500977,93.458344 2106.983887,97.308357 2112.500000,103.000000 
"/>
<path fill="none" opacity="1.000000" stroke="#000000" stroke-linecap="round" stroke-linejoin="round" stroke-width="7.000000"
	d="
M1967.500000,209.000000 
	C1972.702393,214.361298 1978.985107,217.307861 1986.500000,217.500000 
"/>
<path fill="none" opacity="1.000000" stroke="#000000" stroke-linecap="round" stroke-linejoin="round" stroke-width="7.000000"
	d="
M1963.500000,207.000000 
	C1958.265503,212.057816 1952.661377,216.431778 1945.000000,217.000000 
"/>
<path fill="none" opacity="1.000000" stroke="#000000" stroke-linecap="round" stroke-linejoin="round" stroke-width="7.000000"
	d="
M249.500000,141.000000 
	C244.262161,136.211914 238.145691,133.745911 231.000000,134.000000 
"/>
<path fill="none" opacity="1.000000" stroke="#000000" stroke-linecap="round" stroke-linejoin="round" stroke-width="7.000000"
	d="
M401.500000,101.000000 
	C396.509033,96.029892 390.414062,93.397697 383.500000,92.500000 
"/>
<path fill="none" opacity="1.000000" stroke="#000000" stroke-linecap="round" stroke-linejoin="round" stroke-width="7.000000"
	d="
M2116.500000,209.000000 
	C2121.398193,214.166748 2127.456787,216.875626 2134.500000,217.500000 
"/>
<path fill="none" opacity="1.000000" stroke="#000000" stroke-linecap="round" stroke-linejoin="round" stroke-width="7.000000"
	d="
M710.500000,209.000000 
	C705.577759,214.115692 699.264648,216.285965 692.500000,217.500000 
"/>
<path fill="none" opacity="1.000000" stroke="#000000" stroke-linecap="round" stroke-linejoin="round" stroke-width="8.000000"
	d="
M716.500000,208.000000 
	C721.466370,213.125076 727.559082,216.116135 734.500000,217.500000 
"/>
<path fill="none" opacity="1.000000" stroke="#000000" stroke-linecap="round" stroke-linejoin="round" stroke-width="8.000000"
	d="
M603.500000,142.000000 
	C598.643127,137.197388 592.859619,134.421646 586.000000,134.000000 
"/>
<path fill="none" opacity="1.000000" stroke="#000000" stroke-linecap="round" stroke-linejoin="round" stroke-width="7.000000"
	d="
M710.500000,142.000000 
	C705.614868,137.259109 699.906921,134.318130 693.000000,134.000000 
"/>
<path fill="none" opacity="1.000000" stroke="#000000" stroke-linecap="round" stroke-linejoin="round" stroke-width="7.000000"
	d="
M1477.500000,100.000000 
	C1472.858521,95.176163 1466.988525,93.137192 1460.500000,92.500000 
"/>
<path fill="none" opacity="1.000000" stroke="#000000" stroke-linecap="round" stroke-linejoin="round" stroke-width="7.000000"
	d="
M907.000000,134.000000 
	C900.566284,133.432358 895.003662,135.260101 890.500000,140.000000 
"/>
<path fill="none" opacity="1.000000" stroke="#000000" stroke-linecap="round" stroke-linejoin="round" stroke-width="7.000000"
	d="
M1611.000000,134.000000 
	C1604.566284,133.432358 1599.003662,135.260101 1594.500000,140.000000 
"/>
<path fill="none" opacity="1.000000" stroke="#000000" stroke-linecap="round" stroke-linejoin="round" stroke-width="7.000000"
	d="
M771.500000,210.000000 
	C775.834229,214.631409 781.460144,216.507309 787.500000,217.500000 
"/>
<path fill="none" opacity="1.000000" stroke="#000000" stroke-linecap="round" stroke-linejoin="round" stroke-width="7.000000"
	d="
M762.500000,210.000000 
	C758.165771,214.631409 752.539856,216.507309 746.500000,217.500000 
"/>
<path fill="none" opacity="1.000000" stroke="#000000" stroke-linecap="round" stroke-linejoin="round" stroke-width="8.000000"
	d="
M1392.000000,90.000000 
	C1390.656616,95.613731 1388.821411,101.005348 1385.000000,105.500000 
"/>
<path fill="none" opacity="1.000000" stroke="#000000" stroke-linecap="round" stroke-linejoin="round" stroke-width="7.000000"
	d="
M196.500000,141.000000 
	C192.195358,136.757904 186.860260,134.797516 181.000000,134.000000 
"/>
<path fill="none" opacity="1.000000" stroke="#000000" stroke-linecap="round" stroke-linejoin="round" stroke-width="7.000000"
	d="
M2160.500000,138.000000 
	C2156.519775,133.100861 2150.629639,134.567520 2145.500000,133.500000 
"/>
<path fill="none" opacity="1.000000" stroke="#000000" stroke-linecap="round" stroke-linejoin="round" stroke-width="7.000000"
	d="
M2040.000000,134.000000 
	C2034.424805,133.515289 2029.539185,135.030441 2025.500000,139.000000 
"/>
<path fill="none" opacity="1.000000" stroke="#000000" stroke-linecap="round" stroke-linejoin="round" stroke-width="6.000000"
	d="
M2323.500000,217.500000 
	C2321.117188,217.513199 2318.561523,217.691788 2316.537842,216.439041 
	C2311.258789,213.171265 2306.222656,213.902390 2300.966797,216.430893 
	C2299.347900,217.209717 2297.333252,217.166718 2295.500000,217.500046 
"/>
<path fill="none" opacity="1.000000" stroke="#000000" stroke-linecap="round" stroke-linejoin="round" stroke-width="7.000000"
	d="
M2365.500000,137.500000 
	C2361.257568,135.340134 2356.996094,133.253250 2352.000000,134.000000 
"/>
<path fill="none" opacity="1.000000" stroke="#000000" stroke-linecap="round" stroke-linejoin="round" stroke-width="7.000000"
	d="
M2081.000000,134.000000 
	C2077.105957,133.984283 2073.907959,136.057419 2070.180420,137.267166 
	C2066.544434,134.233215 2061.870361,133.738571 2057.000000,134.000000 
"/>
<path fill="none" opacity="1.000000" stroke="#000000" stroke-linecap="round" stroke-linejoin="round" stroke-width="7.000000"
	d="
M1917.500000,211.000000 
	C1921.186157,214.831284 1925.893311,216.365128 1931.000000,217.000000 
"/>
<path fill="none" opacity="1.000000" stroke="#000000" stroke-linecap="round" stroke-linejoin="round" stroke-width="6.000000"
	d="
M2159.500000,213.000000 
	C2156.294434,216.618652 2151.934082,217.157669 2147.500000,217.500000 
"/>
<path fill="none" opacity="1.000000" stroke="#000000" stroke-linecap="round" stroke-linejoin="round" stroke-width="6.000000"
	d="
M2351.500000,213.000000 
	C2348.294434,216.618652 2343.934082,217.157669 2339.500000,217.500000 
"/>
<path fill="none" opacity="1.000000" stroke="#000000" stroke-linecap="round" stroke-linejoin="round" stroke-width="9.000000"
	d="
M1188.500000,90.500000 
	C1171.395142,93.246857 1159.363403,102.819275 1151.500000,118.000000 
"/>
<path fill="none" opacity="1.000000" stroke="#000000" stroke-linecap="round" stroke-linejoin="round" stroke-width="8.000000"
	d="
M1151.500000,193.500000 
	C1157.761719,203.762161 1165.601685,212.139496 1176.966553,217.076950 
	C1193.688599,224.341812 1214.500122,219.149918 1226.031982,206.529175 
	C1229.748779,202.461380 1233.521484,198.490860 1236.000000,193.500000 
"/>
<path fill="none" opacity="1.000000" stroke="#000000" stroke-linecap="round" stroke-linejoin="round" stroke-width="8.000000"
	d="
M1235.500000,116.500000 
	C1230.981323,109.600471 1225.768921,103.338326 1219.000732,98.498901 
	C1210.003296,92.065422 1199.947144,89.614723 1189.000000,90.500000 
"/>
</svg>